<?xml version="1.0" standalone="no"?>
<!DOCTYPE svg PUBLIC "-//W3C//DTD SVG 20010904//EN"
 "http://www.w3.org/TR/2001/REC-SVG-20010904/DTD/svg10.dtd">
<svg version="1.0" xmlns="http://www.w3.org/2000/svg"
 width="88.000000pt" height="88.000000pt" viewBox="0 0 88.000000 88.000000"
 preserveAspectRatio="xMidYMid meet">
<metadata>
Created by potrace 1.16, written by Peter Selinger 2001-2019
</metadata>
<g transform="translate(0.000000,88.000000) scale(0.100000,-0.100000)"
fill="#000000" stroke="none">
<path d="M0 440 l0 -440 440 0 440 0 0 440 0 440 -440 0 -440 0 0 -440z m415
140 c19 -7 38 -7 64 1 31 9 43 8 69 -5 l32 -16 -20 -33 c-26 -42 -25 -70 4
-104 l24 -28 -19 -37 c-24 -47 -49 -61 -91 -50 -20 5 -46 4 -66 -2 -29 -8 -35
-6 -62 19 -67 64 -77 187 -20 238 33 30 45 32 85 17z"/>
</g>
</svg>
